<svg xmlns="http://www.w3.org/2000/svg" width="0" height="0"><defs><symbol id="file-outline" fill="none" stroke="currentColor" stroke-linecap="round" stroke-linejoin="round" stroke-width="2" viewBox="0 0 24 24"><path d="M14 3v4a1 1 0 0 0 1 1h4"/><path d="M17 21H7a2 2 0 0 1-2-2V5a2 2 0 0 1 2-2h7l5 5v11a2 2 0 0 1-2 2"/></symbol><symbol id="file-stack-outline" fill="none" stroke="currentColor" stroke-linecap="round" stroke-linejoin="round" stroke-width="2" viewBox="0 0 24 24"><path d="M14 3v4a1 1 0 0 0 1 1h4"/><path d="M5 12V5a2 2 0 0 1 2-2h7l5 5v4M5 21h14M5 18h14M5 15h14"/></symbol><symbol id="rectangle-outline" fill="none" stroke="currentColor" stroke-linecap="round" stroke-linejoin="round" stroke-width="2" viewBox="0 0 24 24"><path d="M3 7a2 2 0 0 1 2-2h14a2 2 0 0 1 2 2v10a2 2 0 0 1-2 2H5a2 2 0 0 1-2-2z"/></symbol></defs></svg>