<svg xmlns="http://www.w3.org/2000/svg" width="0" height="0"><defs><symbol id="briefcase-outline" fill="none" stroke="currentColor" stroke-linecap="round" stroke-linejoin="round" stroke-width="2" viewBox="0 0 24 24"><path d="M3 9a2 2 0 0 1 2-2h14a2 2 0 0 1 2 2v9a2 2 0 0 1-2 2H5a2 2 0 0 1-2-2zM8 7V5a2 2 0 0 1 2-2h4a2 2 0 0 1 2 2v2M12 12v.01"/><path d="M3 13a20 20 0 0 0 18 0"/></symbol><symbol id="building-outline" fill="none" stroke="currentColor" stroke-linecap="round" stroke-linejoin="round" stroke-width="2" viewBox="0 0 24 24"><path d="M3 21h18M9 8h1M9 12h1M9 16h1M14 8h1M14 12h1M14 16h1M5 21V5a2 2 0 0 1 2-2h10a2 2 0 0 1 2 2v16"/></symbol><symbol id="buildings-outline" fill="none" stroke="currentColor" stroke-linecap="round" stroke-linejoin="round" stroke-width="2" viewBox="0 0 24 24"><path d="M4 21V6c0-1 1-2 2-2h5c1 0 2 1 2 2v15M16 8h2c1 0 2 1 2 2v11M3 21h18M17 16"/></symbol><symbol id="caret-down-outline" fill="none" stroke="currentColor" stroke-linecap="round" stroke-linejoin="round" stroke-width="2" viewBox="0 0 24 24"><path d="m6 10 6 6 6-6z"/></symbol><symbol id="caret-up-down-outline" fill="none" stroke="currentColor" stroke-linecap="round" stroke-linejoin="round" stroke-width="2" viewBox="0 0 24 24"><path d="m18 10-6-6-6 6zM18 14l-6 6-6-6z"/></symbol><symbol id="caret-up-outline" fill="none" stroke="currentColor" stroke-linecap="round" stroke-linejoin="round" stroke-width="2" viewBox="0 0 24 24"><path d="m18 14-6-6-6 6z"/></symbol><symbol id="file-orientation-outline" fill="none" stroke="currentColor" stroke-linecap="round" stroke-linejoin="round" stroke-width="2" viewBox="0 0 24 24"><path d="M14 3v4a1 1 0 0 0 1 1h4"/><path d="M10 21H7a2 2 0 0 1-2-2V5a2 2 0 0 1 2-2h7l5 5v2M13 20h5a2 2 0 0 0 2-2v-5"/><path d="m15 22-2-2 2-2M18 15l2-2 2 2"/></symbol><symbol id="file-outline" fill="none" stroke="currentColor" stroke-linecap="round" stroke-linejoin="round" stroke-width="2" viewBox="0 0 24 24"><path d="M14 3v4a1 1 0 0 0 1 1h4"/><path d="M17 21H7a2 2 0 0 1-2-2V5a2 2 0 0 1 2-2h7l5 5v11a2 2 0 0 1-2 2"/></symbol><symbol id="file-stack-outline" fill="none" stroke="currentColor" stroke-linecap="round" stroke-linejoin="round" stroke-width="2" viewBox="0 0 24 24"><path d="M14 3v4a1 1 0 0 0 1 1h4"/><path d="M5 12V5a2 2 0 0 1 2-2h7l5 5v4M5 21h14M5 18h14M5 15h14"/></symbol><symbol id="files-outline" fill="none" stroke="currentColor" stroke-linecap="round" stroke-linejoin="round" stroke-width="2" viewBox="0 0 24 24"><path d="M15 3v4a1 1 0 0 0 1 1h4"/><path d="M18 17h-7a2 2 0 0 1-2-2V5a2 2 0 0 1 2-2h4l5 5v7a2 2 0 0 1-2 2"/><path d="M16 17v2a2 2 0 0 1-2 2H7a2 2 0 0 1-2-2V9a2 2 0 0 1 2-2h2"/></symbol><symbol id="git-compare-outline" fill="none" stroke="currentColor" stroke-linecap="round" stroke-linejoin="round" stroke-width="2" viewBox="0 0 24 24"><path d="M4 6a2 2 0 1 0 4 0 2 2 0 1 0-4 0M16 18a2 2 0 1 0 4 0 2 2 0 1 0-4 0"/><path d="M11 6h5a2 2 0 0 1 2 2v8"/><path d="m14 9-3-3 3-3M13 18H8a2 2 0 0 1-2-2V8"/><path d="m10 15 3 3-3 3"/></symbol><symbol id="infinity-outline" fill="none" stroke="currentColor" stroke-linecap="round" stroke-linejoin="round" stroke-width="2" viewBox="0 0 24 24"><path d="M9.828 9.172a4 4 0 1 0 0 5.656A10 10 0 0 0 12 12a10 10 0 0 1 2.172-2.828 4 4 0 1 1 0 5.656A10 10 0 0 1 12 12a10 10 0 0 0-2.172-2.828"/></symbol><symbol id="user-outline" fill="none" stroke="currentColor" stroke-linecap="round" stroke-linejoin="round" stroke-width="2" viewBox="0 0 24 24"><path d="M8 7a4 4 0 1 0 8 0 4 4 0 0 0-8 0M6 21v-2a4 4 0 0 1 4-4h4a4 4 0 0 1 4 4v2"/></symbol><symbol id="users-outline" fill="none" stroke="currentColor" stroke-linecap="round" stroke-linejoin="round" stroke-width="2" viewBox="0 0 24 24"><path d="M5 7a4 4 0 1 0 8 0 4 4 0 1 0-8 0M3 21v-2a4 4 0 0 1 4-4h4a4 4 0 0 1 4 4v2M16 3.13a4 4 0 0 1 0 7.75M21 21v-2a4 4 0 0 0-3-3.85"/></symbol></defs></svg>