<?xml version="1.0" encoding="UTF-8"?>
<!-- This file is generated by npm run build:icons -->
<svg xmlns="http://www.w3.org/2000/svg" xmlns:xlink="http://www.w3.org/1999/xlink" width="0" height="0">
<defs>
<symbol viewBox="0 0 24 24" fill="none" stroke="currentColor" stroke-width="2" stroke-linecap="round" stroke-linejoin="round" id="briefcase-outline">
  <path d="M3 7m0 2a2 2 0 0 1 2 -2h14a2 2 0 0 1 2 2v9a2 2 0 0 1 -2 2h-14a2 2 0 0 1 -2 -2z" ></path>
  <path d="M8 7v-2a2 2 0 0 1 2 -2h4a2 2 0 0 1 2 2v2" ></path>
  <path d="M12 12l0 .01" ></path>
  <path d="M3 13a20 20 0 0 0 18 0" ></path>
</symbol>
<symbol viewBox="0 0 24 24" fill="none" stroke="currentColor" stroke-width="2" stroke-linecap="round" stroke-linejoin="round" id="building-outline">
  <path d="M3 21l18 0" ></path>
  <path d="M9 8l1 0" ></path>
  <path d="M9 12l1 0" ></path>
  <path d="M9 16l1 0" ></path>
  <path d="M14 8l1 0" ></path>
  <path d="M14 12l1 0" ></path>
  <path d="M14 16l1 0" ></path>
  <path d="M5 21v-16a2 2 0 0 1 2 -2h10a2 2 0 0 1 2 2v16" ></path>
</symbol>
<symbol viewBox="0 0 24 24" fill="none" stroke="currentColor" stroke-width="2" stroke-linecap="round" stroke-linejoin="round" id="buildings-outline">
  <path d="M4 21v-15c0 -1 1 -2 2 -2h5c1 0 2 1 2 2v15" ></path>
  <path d="M16 8h2c1 0 2 1 2 2v11" ></path>
  <path d="M3 21h18" ></path>
  <path d="M10 12v0" ></path>
  <path d="M10 16v0" ></path>
  <path d="M10 8v0" ></path>
  <path d="M7 12v0" ></path>
  <path d="M7 16v0" ></path>
  <path d="M7 8v0" ></path>
  <path d="M17 12v0" ></path>
  <path d="M17 16v0" ></path>
</symbol>
<symbol viewBox="0 0 24 24" fill="none" stroke="currentColor" stroke-width="2" stroke-linecap="round" stroke-linejoin="round" id="file-orientation-outline">
  <path d="M14 3v4a1 1 0 0 0 1 1h4" ></path>
  <path d="M10 21h-3a2 2 0 0 1 -2 -2v-14a2 2 0 0 1 2 -2h7l5 5v2" ></path>
  <path d="M13 20h5a2 2 0 0 0 2 -2v-5" ></path>
  <path d="M15 22l-2 -2l2 -2" ></path>
  <path d="M18 15l2 -2l2 2" ></path>
</symbol>
<symbol viewBox="0 0 24 24" fill="none" stroke="currentColor" stroke-width="2" stroke-linecap="round" stroke-linejoin="round" id="file-outline">
  <path d="M14 3v4a1 1 0 0 0 1 1h4" ></path>
  <path d="M17 21h-10a2 2 0 0 1 -2 -2v-14a2 2 0 0 1 2 -2h7l5 5v11a2 2 0 0 1 -2 2z" ></path>
</symbol>
<symbol viewBox="0 0 24 24" fill="none" stroke="currentColor" stroke-width="2" stroke-linecap="round" stroke-linejoin="round" id="file-stack-outline">
  <path d="M14 3v4a1 1 0 0 0 1 1h4" ></path>
  <path d="M5 12v-7a2 2 0 0 1 2 -2h7l5 5v4" ></path>
  <path d="M5 21h14" ></path>
  <path d="M5 18h14" ></path>
  <path d="M5 15h14" ></path>
</symbol>
<symbol viewBox="0 0 24 24" fill="none" stroke="currentColor" stroke-width="2" stroke-linecap="round" stroke-linejoin="round" id="files-outline">
  <path d="M15 3v4a1 1 0 0 0 1 1h4" ></path>
  <path d="M18 17h-7a2 2 0 0 1 -2 -2v-10a2 2 0 0 1 2 -2h4l5 5v7a2 2 0 0 1 -2 2z" ></path>
  <path d="M16 17v2a2 2 0 0 1 -2 2h-7a2 2 0 0 1 -2 -2v-10a2 2 0 0 1 2 -2h2" ></path>
</symbol>
<symbol viewBox="0 0 24 24" fill="none" stroke="currentColor" stroke-width="2" stroke-linecap="round" stroke-linejoin="round" id="infinity-outline">
  <path d="M9.828 9.172a4 4 0 1 0 0 5.656a10 10 0 0 0 2.172 -2.828a10 10 0 0 1 2.172 -2.828a4 4 0 1 1 0 5.656a10 10 0 0 1 -2.172 -2.828a10 10 0 0 0 -2.172 -2.828" ></path>
</symbol>
<symbol viewBox="0 0 24 24" fill="none" stroke="currentColor" stroke-width="2" stroke-linecap="round" stroke-linejoin="round" id="user-outline">
  <path d="M8 7a4 4 0 1 0 8 0a4 4 0 0 0 -8 0" ></path>
  <path d="M6 21v-2a4 4 0 0 1 4 -4h4a4 4 0 0 1 4 4v2" ></path>
</symbol>
<symbol viewBox="0 0 24 24" fill="none" stroke="currentColor" stroke-width="2" stroke-linecap="round" stroke-linejoin="round" id="users-outline">
  <path d="M9 7m-4 0a4 4 0 1 0 8 0a4 4 0 1 0 -8 0" ></path>
  <path d="M3 21v-2a4 4 0 0 1 4 -4h4a4 4 0 0 1 4 4v2" ></path>
  <path d="M16 3.13a4 4 0 0 1 0 7.75" ></path>
  <path d="M21 21v-2a4 4 0 0 0 -3 -3.85" ></path>
</symbol>
</defs>
</svg>
