<svg xmlns="http://www.w3.org/2000/svg" width="0" height="0"><defs><symbol id="assembly" viewBox="0 0 24 24"><g fill="none" stroke="currentColor" stroke-linecap="round" stroke-linejoin="round" stroke-width="2"><path d="M19.875 6.27c.7.398 1.13 1.143 1.125 1.948v7.284c0 .809-.443 1.555-1.158 1.948l-6.75 4.27a2.27 2.27 0 0 1-2.184 0l-6.75-4.27A2.23 2.23 0 0 1 3 15.502V8.217c0-.809.443-1.554 1.158-1.947l6.75-3.98a2.33 2.33 0 0 1 2.25 0l6.75 3.98z"/><path d="M15.5 9.422c.312.18.503.515.5.876v3.277c0 .364-.197.7-.515.877l-3 1.922a1 1 0 0 1-.97 0l-3-1.922A1 1 0 0 1 8 13.576v-3.278c0-.364.197-.7.514-.877l3-1.79c.311-.174.69-.174 1 0l3 1.79H15.5z"/></g></symbol><symbol id="briefcase-outline" fill="none" stroke="currentColor" stroke-linecap="round" stroke-linejoin="round" stroke-width="2" viewBox="0 0 24 24"><path d="M3 9a2 2 0 0 1 2-2h14a2 2 0 0 1 2 2v9a2 2 0 0 1-2 2H5a2 2 0 0 1-2-2zM8 7V5a2 2 0 0 1 2-2h4a2 2 0 0 1 2 2v2M12 12v.01"/><path d="M3 13a20 20 0 0 0 18 0"/></symbol><symbol id="building-outline" fill="none" stroke="currentColor" stroke-linecap="round" stroke-linejoin="round" stroke-width="2" viewBox="0 0 24 24"><path d="M3 21h18M9 8h1M9 12h1M9 16h1M14 8h1M14 12h1M14 16h1M5 21V5a2 2 0 0 1 2-2h10a2 2 0 0 1 2 2v16"/></symbol><symbol id="buildings-outline" fill="none" stroke="currentColor" stroke-linecap="round" stroke-linejoin="round" stroke-width="2" viewBox="0 0 24 24"><path d="M4 21V6c0-1 1-2 2-2h5c1 0 2 1 2 2v15M16 8h2c1 0 2 1 2 2v11M3 21h18M17 16"/></symbol><symbol id="caret-down-outline" fill="none" stroke="currentColor" stroke-linecap="round" stroke-linejoin="round" stroke-width="2" viewBox="0 0 24 24"><path d="m6 10 6 6 6-6z"/></symbol><symbol id="caret-up-down-outline" fill="none" stroke="currentColor" stroke-linecap="round" stroke-linejoin="round" stroke-width="2" viewBox="0 0 24 24"><path d="m18 10-6-6-6 6zM18 14l-6 6-6-6z"/></symbol><symbol id="caret-up-outline" fill="none" stroke="currentColor" stroke-linecap="round" stroke-linejoin="round" stroke-width="2" viewBox="0 0 24 24"><path d="m18 14-6-6-6 6z"/></symbol><symbol id="check" viewBox="0 0 24 24"><path fill="none" stroke="currentColor" stroke-linecap="round" stroke-linejoin="round" stroke-width="2" d="m5 12 5 5L20 7"/></symbol><symbol id="chevron-down-outline" fill="none" stroke="currentColor" stroke-linecap="round" stroke-linejoin="round" stroke-width="2" viewBox="0 0 24 24"><path d="m6 9 6 6 6-6"/></symbol><symbol id="chevron-left-outline" fill="none" stroke="currentColor" stroke-linecap="round" stroke-linejoin="round" stroke-width="2" viewBox="0 0 24 24"><path d="m15 6-6 6 6 6"/></symbol><symbol id="chevron-right-outline" fill="none" stroke="currentColor" stroke-linecap="round" stroke-linejoin="round" stroke-width="2" viewBox="0 0 24 24"><path d="m9 6 6 6-6 6"/></symbol><symbol id="chevron-up-outline" fill="none" stroke="currentColor" stroke-linecap="round" stroke-linejoin="round" stroke-width="2" viewBox="0 0 24 24"><path d="m6 15 6-6 6 6"/></symbol><symbol id="cloud-computing" viewBox="0 0 24 24"><g fill="none" stroke="currentColor" stroke-linecap="round" stroke-linejoin="round" stroke-width="2"><path d="M6.657 16C4.085 16 2 13.993 2 11.517s2.085-4.482 4.657-4.482c.393-1.762 1.794-3.2 3.675-3.773 1.88-.572 3.956-.193 5.444 1 1.488 1.19 2.162 3.007 1.77 4.769h.99c1.913 0 3.464 1.56 3.464 3.486s-1.551 3.487-3.465 3.487H6.657M12 16v5"/><path d="M16 16v4a1 1 0 0 0 1 1h4M8 16v4a1 1 0 0 1-1 1H3"/></g></symbol><symbol id="copy" viewBox="0 0 24 24"><g fill="none" stroke="currentColor" stroke-linecap="round" stroke-linejoin="round" stroke-width="2"><path d="M7 9.667A2.667 2.667 0 0 1 9.667 7h8.666A2.667 2.667 0 0 1 21 9.667v8.666A2.667 2.667 0 0 1 18.333 21H9.667A2.667 2.667 0 0 1 7 18.333z"/><path d="M4.012 16.737A2 2 0 0 1 3 15V5c0-1.1.9-2 2-2h10c.75 0 1.158.385 1.5 1"/></g></symbol><symbol id="file-orientation-outline" fill="none" stroke="currentColor" stroke-linecap="round" stroke-linejoin="round" stroke-width="2" viewBox="0 0 24 24"><path d="M14 3v4a1 1 0 0 0 1 1h4"/><path d="M10 21H7a2 2 0 0 1-2-2V5a2 2 0 0 1 2-2h7l5 5v2M13 20h5a2 2 0 0 0 2-2v-5"/><path d="m15 22-2-2 2-2M18 15l2-2 2 2"/></symbol><symbol id="file-outline" fill="none" stroke="currentColor" stroke-linecap="round" stroke-linejoin="round" stroke-width="2" viewBox="0 0 24 24"><path d="M14 3v4a1 1 0 0 0 1 1h4"/><path d="M17 21H7a2 2 0 0 1-2-2V5a2 2 0 0 1 2-2h7l5 5v11a2 2 0 0 1-2 2"/></symbol><symbol id="file-stack-outline" fill="none" stroke="currentColor" stroke-linecap="round" stroke-linejoin="round" stroke-width="2" viewBox="0 0 24 24"><path d="M14 3v4a1 1 0 0 0 1 1h4"/><path d="M5 12V5a2 2 0 0 1 2-2h7l5 5v4M5 21h14M5 18h14M5 15h14"/></symbol><symbol id="files-outline" fill="none" stroke="currentColor" stroke-linecap="round" stroke-linejoin="round" stroke-width="2" viewBox="0 0 24 24"><path d="M15 3v4a1 1 0 0 0 1 1h4"/><path d="M18 17h-7a2 2 0 0 1-2-2V5a2 2 0 0 1 2-2h4l5 5v7a2 2 0 0 1-2 2"/><path d="M16 17v2a2 2 0 0 1-2 2H7a2 2 0 0 1-2-2V9a2 2 0 0 1 2-2h2"/></symbol><symbol id="git-compare-outline" fill="none" stroke="currentColor" stroke-linecap="round" stroke-linejoin="round" stroke-width="2" viewBox="0 0 24 24"><path d="M4 6a2 2 0 1 0 4 0 2 2 0 1 0-4 0M16 18a2 2 0 1 0 4 0 2 2 0 1 0-4 0"/><path d="M11 6h5a2 2 0 0 1 2 2v8"/><path d="m14 9-3-3 3-3M13 18H8a2 2 0 0 1-2-2V8"/><path d="m10 15 3 3-3 3"/></symbol><symbol id="infinity-outline" fill="none" stroke="currentColor" stroke-linecap="round" stroke-linejoin="round" stroke-width="2" viewBox="0 0 24 24"><path d="M9.828 9.172a4 4 0 1 0 0 5.656A10 10 0 0 0 12 12a10 10 0 0 1 2.172-2.828 4 4 0 1 1 0 5.656A10 10 0 0 1 12 12a10 10 0 0 0-2.172-2.828"/></symbol><symbol id="logs" viewBox="0 0 24 24"><path fill="none" stroke="currentColor" stroke-linecap="round" stroke-linejoin="round" stroke-width="2" d="M4 12h.01M4 6h.01M4 18h.01M8 18h2m-2-6h2M8 6h2m4 0h6m-6 6h6m-6 6h6"/></symbol><symbol id="permatrust-logo" viewBox="0 0 100 100"><path fill="none" stroke="#000" stroke-width="2" d="M35 30h30v40H35z"/><path fill="none" stroke="#000" stroke-width="2" d="M65 30v5l-5-5ZM44 55h12v10H44zM46 55v-5a6 6 0 0 1 8 0v5"/><path stroke="#000" stroke-width="2" d="M38 35h24M38 40h24M38 45h24"/><circle cx="50" cy="60" r="2" fill="none" stroke="#000" stroke-width="2"/></symbol><symbol id="settings" viewBox="0 0 24 24"><g fill="none" stroke="currentColor" stroke-linecap="round" stroke-linejoin="round" stroke-width="2"><path d="M10.325 4.317c.426-1.756 2.924-1.756 3.35 0a1.724 1.724 0 0 0 2.573 1.066c1.543-.94 3.31.826 2.37 2.37a1.724 1.724 0 0 0 1.065 2.572c1.756.426 1.756 2.924 0 3.35a1.724 1.724 0 0 0-1.066 2.573c.94 1.543-.826 3.31-2.37 2.37a1.724 1.724 0 0 0-2.572 1.065c-.426 1.756-2.924 1.756-3.35 0a1.724 1.724 0 0 0-2.573-1.066c-1.543.94-3.31-.826-2.37-2.37a1.724 1.724 0 0 0-1.065-2.572c-1.756-.426-1.756-2.924 0-3.35a1.724 1.724 0 0 0 1.066-2.573c-.94-1.543.826-3.31 2.37-2.37 1 .608 2.296.07 2.572-1.065"/><path d="M9 12a3 3 0 1 0 6 0 3 3 0 0 0-6 0"/></g></symbol><symbol id="sprite"><defs><symbol id="briefcase-outline" fill="none" stroke="currentColor" stroke-linecap="round" stroke-linejoin="round" stroke-width="2" viewBox="0 0 24 24"><path d="M3 9a2 2 0 0 1 2-2h14a2 2 0 0 1 2 2v9a2 2 0 0 1-2 2H5a2 2 0 0 1-2-2zm5-2V5a2 2 0 0 1 2-2h4a2 2 0 0 1 2 2v2m-4 5v.01"/><path d="M3 13a20 20 0 0 0 18 0"/></symbol><symbol id="building-outline" fill="none" stroke="currentColor" stroke-linecap="round" stroke-linejoin="round" stroke-width="2" viewBox="0 0 24 24"><path d="M3 21h18M9 8h1m-1 4h1m-1 4h1m4-8h1m-1 4h1m-1 4h1M5 21V5a2 2 0 0 1 2-2h10a2 2 0 0 1 2 2v16"/></symbol><symbol id="buildings-outline" fill="none" stroke="currentColor" stroke-linecap="round" stroke-linejoin="round" stroke-width="2" viewBox="0 0 24 24"><path d="M4 21V6c0-1 1-2 2-2h5c1 0 2 1 2 2v15m3-13h2c1 0 2 1 2 2v11M3 21h18m-4-5"/></symbol><symbol id="caret-down-outline" fill="none" stroke="currentColor" stroke-linecap="round" stroke-linejoin="round" stroke-width="2" viewBox="0 0 24 24"><path d="m6 10 6 6 6-6z"/></symbol><symbol id="caret-up-down-outline" fill="none" stroke="currentColor" stroke-linecap="round" stroke-linejoin="round" stroke-width="2" viewBox="0 0 24 24"><path d="m18 10-6-6-6 6zm0 4-6 6-6-6z"/></symbol><symbol id="caret-up-outline" fill="none" stroke="currentColor" stroke-linecap="round" stroke-linejoin="round" stroke-width="2" viewBox="0 0 24 24"><path d="m18 14-6-6-6 6z"/></symbol><symbol id="chevron-down-outline" fill="none" stroke="currentColor" stroke-linecap="round" stroke-linejoin="round" stroke-width="2" viewBox="0 0 24 24"><path d="m6 9 6 6 6-6"/></symbol><symbol id="chevron-left-outline" fill="none" stroke="currentColor" stroke-linecap="round" stroke-linejoin="round" stroke-width="2" viewBox="0 0 24 24"><path d="m15 6-6 6 6 6"/></symbol><symbol id="chevron-right-outline" fill="none" stroke="currentColor" stroke-linecap="round" stroke-linejoin="round" stroke-width="2" viewBox="0 0 24 24"><path d="m9 6 6 6-6 6"/></symbol><symbol id="chevron-up-outline" fill="none" stroke="currentColor" stroke-linecap="round" stroke-linejoin="round" stroke-width="2" viewBox="0 0 24 24"><path d="m6 15 6-6 6 6"/></symbol><symbol id="file-orientation-outline" fill="none" stroke="currentColor" stroke-linecap="round" stroke-linejoin="round" stroke-width="2" viewBox="0 0 24 24"><path d="M14 3v4a1 1 0 0 0 1 1h4"/><path d="M10 21H7a2 2 0 0 1-2-2V5a2 2 0 0 1 2-2h7l5 5v2m-6 10h5a2 2 0 0 0 2-2v-5"/><path d="m15 22-2-2 2-2m3-3 2-2 2 2"/></symbol><symbol id="file-outline" fill="none" stroke="currentColor" stroke-linecap="round" stroke-linejoin="round" stroke-width="2" viewBox="0 0 24 24"><path d="M14 3v4a1 1 0 0 0 1 1h4"/><path d="M17 21H7a2 2 0 0 1-2-2V5a2 2 0 0 1 2-2h7l5 5v11a2 2 0 0 1-2 2"/></symbol><symbol id="file-stack-outline" fill="none" stroke="currentColor" stroke-linecap="round" stroke-linejoin="round" stroke-width="2" viewBox="0 0 24 24"><path d="M14 3v4a1 1 0 0 0 1 1h4"/><path d="M5 12V5a2 2 0 0 1 2-2h7l5 5v4M5 21h14M5 18h14M5 15h14"/></symbol><symbol id="files-outline" fill="none" stroke="currentColor" stroke-linecap="round" stroke-linejoin="round" stroke-width="2" viewBox="0 0 24 24"><path d="M15 3v4a1 1 0 0 0 1 1h4"/><path d="M18 17h-7a2 2 0 0 1-2-2V5a2 2 0 0 1 2-2h4l5 5v7a2 2 0 0 1-2 2"/><path d="M16 17v2a2 2 0 0 1-2 2H7a2 2 0 0 1-2-2V9a2 2 0 0 1 2-2h2"/></symbol><symbol id="git-compare-outline" fill="none" stroke="currentColor" stroke-linecap="round" stroke-linejoin="round" stroke-width="2" viewBox="0 0 24 24"><path d="M4 6a2 2 0 1 0 4 0 2 2 0 1 0-4 0m12 12a2 2 0 1 0 4 0 2 2 0 1 0-4 0"/><path d="M11 6h5a2 2 0 0 1 2 2v8"/><path d="m14 9-3-3 3-3m-1 15H8a2 2 0 0 1-2-2V8"/><path d="m10 15 3 3-3 3"/></symbol><symbol id="infinity-outline" fill="none" stroke="currentColor" stroke-linecap="round" stroke-linejoin="round" stroke-width="2" viewBox="0 0 24 24"><path d="M9.828 9.172a4 4 0 1 0 0 5.656A10 10 0 0 0 12 12a10 10 0 0 1 2.172-2.828 4 4 0 1 1 0 5.656A10 10 0 0 1 12 12a10 10 0 0 0-2.172-2.828"/></symbol><symbol id="permatrust-logo" viewBox="0 0 100 100"><path fill="none" stroke="#000" stroke-width="2" d="M35 30h30v40H35z"/><path fill="none" stroke="#000" stroke-width="2" d="M65 30v5l-5-5ZM44 55h12v10H44zm2 0v-5a6 6 0 0 1 8 0v5"/><path stroke="#000" stroke-width="2" d="M38 35h24m-24 5h24m-24 5h24"/><circle cx="50" cy="60" r="2" fill="none" stroke="#000" stroke-width="2"/></symbol><symbol id="tabler/check" viewBox="0 0 24 24"><path fill="none" stroke="currentColor" stroke-linecap="round" stroke-linejoin="round" stroke-width="2" d="m5 12 5 5L20 7"/></symbol><symbol id="tabler/copy" viewBox="0 0 24 24"><g fill="none" stroke="currentColor" stroke-linecap="round" stroke-linejoin="round" stroke-width="2"><path d="M7 9.667A2.667 2.667 0 0 1 9.667 7h8.666A2.667 2.667 0 0 1 21 9.667v8.666A2.667 2.667 0 0 1 18.333 21H9.667A2.667 2.667 0 0 1 7 18.333z"/><path d="M4.012 16.737A2 2 0 0 1 3 15V5c0-1.1.9-2 2-2h10c.75 0 1.158.385 1.5 1"/></g></symbol><symbol id="user-check-outline" fill="none" stroke="currentColor" stroke-linecap="round" stroke-linejoin="round" stroke-width="2" viewBox="0 0 24 24"><path d="M8 7a4 4 0 1 0 8 0 4 4 0 0 0-8 0M6 21v-2a4 4 0 0 1 4-4h4m1 4 2 2 4-4"/></symbol><symbol id="user-outline" fill="none" stroke="currentColor" stroke-linecap="round" stroke-linejoin="round" stroke-width="2" viewBox="0 0 24 24"><path d="M8 7a4 4 0 1 0 8 0 4 4 0 0 0-8 0M6 21v-2a4 4 0 0 1 4-4h4a4 4 0 0 1 4 4v2"/></symbol><symbol id="users-outline" fill="none" stroke="currentColor" stroke-linecap="round" stroke-linejoin="round" stroke-width="2" viewBox="0 0 24 24"><path d="M5 7a4 4 0 1 0 8 0 4 4 0 1 0-8 0M3 21v-2a4 4 0 0 1 4-4h4a4 4 0 0 1 4 4v2m1-17.87a4 4 0 0 1 0 7.75M21 21v-2a4 4 0 0 0-3-3.85"/></symbol><symbol id="x-outline" fill="none" stroke="currentColor" stroke-linecap="round" stroke-linejoin="round" stroke-width="2" viewBox="0 0 24 24"><path d="M18 6 6 18M6 6l12 12"/></symbol></defs></symbol><symbol id="user-check-outline" fill="none" stroke="currentColor" stroke-linecap="round" stroke-linejoin="round" stroke-width="2" viewBox="0 0 24 24"><path d="M8 7a4 4 0 1 0 8 0 4 4 0 0 0-8 0M6 21v-2a4 4 0 0 1 4-4h4M15 19l2 2 4-4"/></symbol><symbol id="user-outline" fill="none" stroke="currentColor" stroke-linecap="round" stroke-linejoin="round" stroke-width="2" viewBox="0 0 24 24"><path d="M8 7a4 4 0 1 0 8 0 4 4 0 0 0-8 0M6 21v-2a4 4 0 0 1 4-4h4a4 4 0 0 1 4 4v2"/></symbol><symbol id="users-outline" fill="none" stroke="currentColor" stroke-linecap="round" stroke-linejoin="round" stroke-width="2" viewBox="0 0 24 24"><path d="M5 7a4 4 0 1 0 8 0 4 4 0 1 0-8 0M3 21v-2a4 4 0 0 1 4-4h4a4 4 0 0 1 4 4v2M16 3.13a4 4 0 0 1 0 7.75M21 21v-2a4 4 0 0 0-3-3.85"/></symbol><symbol id="x-outline" fill="none" stroke="currentColor" stroke-linecap="round" stroke-linejoin="round" stroke-width="2" viewBox="0 0 24 24"><path d="M18 6 6 18M6 6l12 12"/></symbol></defs></svg>